 <svg version="1.0" xmlns="http://www.w3.org/2000/svg" width="700.000000pt" height="880.000000pt" viewBox="0 0 700.000000 880.000000" preserveAspectRatio="xMidYMid meet">
<metadata>
Created by potrace 1.12, written by Peter Selinger 2001-2015
</metadata>
<g transform="translate(0.000000,880.000000) scale(0.100000,-0.100000)" fill="#000000" stroke="none">
<path d="M3315 7260 c-245 -13 -277 -19 -541 -101 -78 -24 -295 -119 -374
-164 -14 -8 -90 -46 -170 -85 -202 -97 -318 -158 -367 -192 -77 -52 -178 -162
-219 -239 -56 -105 -168 -233 -247 -282 -29 -19 -34 -41 -15 -82 9 -20 9 -37
-1 -76 -12 -47 -12 -53 6 -77 50 -68 57 -189 13 -224 -30 -25 -43 -99 -25
-151 7 -20 30 -62 51 -92 l37 -55 46 6 c43 5 48 3 79 -30 18 -19 40 -37 50
-41 27 -9 64 -98 57 -137 -3 -19 1 -61 11 -98 9 -36 19 -97 23 -136 10 -94 61
-170 61 -90 0 62 89 418 121 487 26 54 31 75 26 105 -9 58 1 84 35 91 16 3 36
16 44 29 14 20 14 26 0 52 -25 48 -28 117 -15 312 6 102 13 208 14 237 5 105
42 265 73 313 9 14 35 61 58 105 23 44 56 96 72 115 17 19 42 50 57 68 15 17
35 32 45 32 10 0 21 8 24 18 4 10 20 29 37 41 27 20 34 22 54 11 20 -11 29 -9
59 9 20 13 40 29 44 38 9 16 37 18 91 7 28 -6 37 -3 52 17 15 20 20 22 44 11
22 -10 33 -9 68 7 33 15 67 19 164 20 87 0 133 5 160 16 20 9 44 13 52 10 8
-3 30 6 50 19 49 35 154 76 191 76 17 0 37 -8 46 -19 9 -11 35 -40 59 -65 38
-41 47 -46 86 -46 68 1 128 16 160 39 34 25 52 26 85 4 41 -26 120 -35 163
-17 55 24 261 30 301 9 18 -9 57 -20 88 -25 102 -17 175 -43 207 -76 18 -17
38 -34 46 -37 10 -4 10 -6 -3 -6 -25 -1 -23 -31 2 -31 18 0 50 -15 125 -59 37
-22 105 -109 105 -136 0 -11 12 -32 28 -46 31 -30 39 -44 82 -159 18 -47 38
-98 46 -115 24 -52 34 -117 34 -224 0 -130 35 -545 59 -706 13 -85 26 -136 45
-171 14 -27 26 -65 26 -85 0 -19 8 -65 19 -100 10 -35 24 -95 31 -134 7 -38
20 -91 30 -116 l16 -47 15 46 c9 30 14 91 14 169 l0 122 38 34 c20 19 37 39
37 43 0 18 119 136 166 165 37 24 55 30 80 26 32 -5 34 -3 69 58 44 79 45 107
5 135 -30 21 -30 22 -12 45 16 20 19 41 13 92 0 7 -12 15 -26 19 -14 3 -29 14
-34 23 -12 23 -7 152 7 178 7 13 10 34 6 49 -5 18 0 34 15 54 11 16 21 37 21
46 0 10 7 25 16 35 18 20 11 39 -14 39 -53 0 -189 144 -250 265 -44 89 -208
263 -311 331 -97 64 -197 124 -207 124 -6 0 -39 12 -75 26 -85 35 -255 94
-299 104 -19 5 -71 22 -115 40 -44 17 -109 40 -145 52 -36 11 -94 30 -130 42
-61 21 -180 52 -295 75 -27 6 -72 16 -100 22 -67 15 -275 19 -470 9z"></path>
<path d="M2247 5580 c-34 -12 -53 -26 -65 -48 -9 -16 -24 -41 -33 -54 -23 -32
-30 -60 -20 -77 8 -12 16 -13 49 -3 85 26 166 6 155 -38 -5 -17 0 -20 30 -20
19 0 52 7 73 16 24 10 54 14 80 11 24 -2 56 2 75 10 30 13 35 12 46 -3 16 -22
16 -37 1 -52 -10 -10 -1 -12 42 -8 30 2 67 9 82 14 22 9 31 7 51 -9 14 -10 38
-19 53 -19 15 0 44 -11 63 -24 47 -32 74 -36 79 -13 5 26 -16 47 -49 47 -15 0
-31 5 -35 11 -3 6 -17 9 -31 6 -17 -3 -28 1 -36 14 -7 11 -19 19 -29 19 -27 0
-48 11 -41 23 3 5 6 24 7 41 1 22 8 34 24 41 26 11 30 35 6 35 -9 0 -31 16
-50 35 -18 19 -43 39 -56 43 -13 5 -79 7 -148 6 -69 -1 -130 3 -137 8 -7 6
-25 6 -48 -1 -19 -5 -48 -6 -63 -2 -17 5 -44 2 -75 -9z m271 -177 c-10 -2 -28
-2 -40 0 -13 2 -5 4 17 4 22 1 32 -1 23 -4z m159 1 c-3 -3 -12 -4 -19 -1 -8 3
-5 6 6 6 11 1 17 -2 13 -5z"></path>
<path d="M4190 5516 c-49 -16 -60 -24 -60 -46 0 -12 8 -21 23 -24 12 -2 46 -9
75 -15 94 -19 140 -15 167 17 30 33 31 58 6 72 -26 13 -166 11 -211 -4z"></path>
<path d="M1436 5347 c-19 -14 -19 -58 0 -64 15 -5 66 45 61 60 -5 17 -39 20
-61 4z"></path>
<path d="M2500 5295 c-14 -8 -42 -19 -64 -25 -41 -12 -123 -65 -139 -91 -7
-11 -4 -22 14 -40 13 -14 29 -33 34 -43 10 -18 12 -18 44 -1 18 9 46 30 61 45
35 35 107 73 126 66 12 -5 11 -12 -5 -42 -19 -34 -19 -39 -5 -73 9 -20 18 -42
21 -48 8 -20 65 -50 108 -57 51 -9 99 20 132 79 24 42 29 117 9 143 -35 48
-192 78 -245 46 -19 -11 -33 -13 -51 -6 l-25 9 23 7 c14 5 22 14 20 24 -4 22
-27 25 -58 7z m198 -158 c2 -9 -4 -20 -12 -23 -21 -8 -46 13 -39 32 8 20 47
13 51 -9z m108 2 c3 -6 0 -17 -8 -25 -12 -12 -17 -12 -32 -1 -11 8 -16 19 -12
25 9 15 43 15 52 1z"></path>
<path d="M4223 5211 c-24 -4 -45 -10 -49 -13 -11 -11 -13 -102 -3 -138 12 -49
60 -96 104 -104 29 -6 49 -2 90 19 61 30 81 64 78 137 -1 26 2 50 6 53 14 8
71 -25 110 -64 52 -53 86 -72 100 -58 20 20 12 53 -16 68 -16 7 -46 28 -69 46
-27 22 -52 33 -73 33 -18 0 -41 4 -51 10 -25 13 -175 21 -227 11z m37 -94 c0
-31 -9 -38 -31 -26 -15 8 -17 14 -9 29 15 28 40 25 40 -3z m105 0 c21 -16 13
-37 -15 -37 -22 0 -34 15 -26 35 7 19 17 19 41 2z"></path>
<path d="M4640 5170 c0 -5 7 -10 16 -10 8 0 12 5 9 10 -3 6 -10 10 -16 10 -5
0 -9 -4 -9 -10z"></path>
<path d="M3080 3495 c-25 -8 -50 -22 -57 -31 -7 -9 -29 -20 -49 -23 -49 -8
-52 -23 -9 -44 36 -17 38 -17 68 25 9 13 36 19 106 25 105 9 125 24 67 48 -43
18 -67 18 -126 0z"></path>
<path d="M3910 3461 c0 -12 93 -71 111 -71 9 0 24 6 34 14 18 13 16 16 -39 40
-59 26 -106 34 -106 17z"></path>
<path d="M5027 3423 c-53 -99 -67 -154 -76 -304 -6 -91 -6 -178 1 -238 13
-127 5 -203 -29 -260 -39 -67 -95 -145 -106 -150 -6 -2 -48 -41 -94 -87 -45
-46 -87 -84 -92 -84 -20 0 -215 -208 -252 -269 -11 -19 -18 -43 -15 -54 2 -11
-4 -31 -15 -46 -14 -19 -20 -46 -22 -106 -2 -45 -6 -86 -11 -93 -4 -6 -2 -21
4 -33 7 -11 9 -32 5 -46 -10 -43 47 -88 59 -45 2 9 7 40 11 67 5 38 12 53 27
60 12 6 25 20 29 32 8 23 4 30 -35 57 -18 12 -18 18 -7 76 9 47 20 71 45 96
29 30 34 32 48 18 22 -22 58 -2 58 31 0 32 -35 43 -61 19 -18 -16 -19 -16 -19
8 0 17 13 35 39 56 22 18 43 41 46 52 5 14 12 19 24 15 11 -3 25 3 36 15 10
11 24 20 31 20 7 0 19 9 27 21 8 11 27 23 43 28 20 5 30 16 36 39 10 37 40 56
74 48 21 -6 24 -3 24 23 0 26 5 31 47 45 57 20 73 10 73 -46 0 -32 -7 -47 -35
-75 -20 -20 -42 -51 -50 -69 -7 -18 -25 -40 -40 -50 -14 -9 -33 -31 -42 -48
-8 -17 -37 -53 -63 -81 -37 -38 -49 -60 -53 -90 -9 -70 -19 -99 -42 -125 -12
-14 -34 -45 -48 -70 -16 -27 -46 -58 -76 -77 -51 -34 -67 -63 -87 -158 -7 -31
-14 -41 -32 -43 -17 -3 -25 2 -29 18 -5 19 -11 21 -42 16 -20 -3 -42 -14 -50
-26 -7 -11 -21 -20 -31 -20 -35 0 -60 -41 -158 -260 -16 -36 -63 -117 -104
-180 -81 -123 -116 -182 -148 -245 -30 -59 -45 -83 -63 -103 -10 -10 -17 -23
-17 -29 0 -10 -32 -43 -42 -43 -4 0 -9 15 -13 32 -10 50 -33 115 -55 158 -15
30 -27 40 -44 40 -32 0 -76 53 -76 92 0 16 -9 42 -20 56 -11 15 -31 40 -43 56
-30 40 -164 190 -224 249 -49 49 -109 87 -139 87 -28 0 -85 32 -101 57 -13 19
-13 31 -5 66 11 44 7 87 -9 87 -5 0 -9 -27 -9 -60 0 -68 -5 -71 -75 -45 -48
17 -75 19 -75 5 0 -5 7 -10 16 -10 18 0 98 -81 120 -123 8 -15 26 -32 39 -37
20 -8 25 -17 25 -44 0 -19 -4 -38 -10 -41 -20 -12 -9 -49 30 -101 23 -28 52
-55 65 -58 13 -3 62 -3 109 0 85 7 85 7 121 -25 20 -17 42 -31 50 -31 23 0 93
-86 143 -177 7 -13 24 -34 38 -48 13 -13 24 -35 24 -49 0 -13 2 -31 6 -39 3
-8 -6 -27 -20 -44 -13 -16 -27 -46 -31 -66 l-7 -37 -54 6 c-53 7 -54 6 -54
-18 0 -14 8 -32 18 -41 26 -24 65 -105 58 -122 -3 -10 -15 -12 -40 -8 -42 7
-44 0 -19 -70 15 -41 15 -51 3 -70 -7 -12 -15 -33 -16 -47 -6 -48 -23 -130
-29 -140 -4 -6 -4 -24 0 -40 l7 -30 139 0 c112 0 139 3 139 14 0 7 9 16 20 19
11 3 24 17 30 31 5 15 21 31 34 36 37 14 44 66 15 114 l-22 38 26 21 c14 12
28 32 32 44 11 38 85 44 85 8 0 -9 -16 -25 -35 -36 -62 -37 -54 -111 10 -95
31 8 73 88 57 109 -12 17 -7 118 7 145 7 13 9 31 6 42 -7 22 18 40 46 33 11
-3 22 3 29 17 9 17 19 21 41 18 34 -5 50 10 25 24 -25 14 -19 47 12 61 36 16
51 36 52 69 0 20 14 39 56 74 30 26 62 61 71 78 9 17 45 64 80 104 34 40 63
76 63 81 0 5 36 46 80 91 44 45 80 91 80 101 0 10 7 22 15 26 19 11 55 112 55
155 0 70 68 197 115 217 6 2 28 24 49 48 22 23 48 43 58 43 21 0 23 19 6 43
-12 15 -17 15 -65 -9 -36 -16 -53 -31 -53 -43 0 -30 -25 -45 -44 -26 -12 13
-13 21 -6 36 6 10 16 19 23 19 7 0 18 15 25 34 8 22 23 38 42 46 17 7 31 20
31 29 7 67 19 108 40 127 11 9 19 21 19 25 0 5 9 23 21 41 l20 33 -2 -40 c-3
-42 12 -61 21 -27 3 11 25 35 50 54 40 30 46 39 50 81 6 54 23 63 30 16 6 -40
27 -49 36 -15 4 17 0 35 -11 52 -19 30 -14 54 13 54 25 0 48 28 57 68 8 37 34
48 89 38 38 -7 50 -19 60 -59 5 -21 2 -29 -11 -33 -48 -15 -83 -38 -83 -57 0
-40 23 -97 43 -103 10 -3 43 -3 73 1 46 5 55 4 61 -11 8 -22 -23 -45 -51 -38
-17 4 -24 -3 -38 -36 -15 -37 -15 -42 -1 -47 9 -3 24 -1 34 5 28 18 41 15 34
-7 -6 -21 10 -38 20 -21 3 6 22 17 41 25 l35 15 -1 67 c-2 97 -2 98 21 127 17
21 24 24 40 16 25 -14 24 -26 -8 -68 -21 -28 -24 -38 -15 -51 23 -30 25 -44
15 -72 -12 -30 1 -186 17 -202 11 -13 28 48 33 120 4 46 13 75 34 108 39 62
54 58 87 -28 14 -34 18 -37 36 -27 14 8 20 21 20 48 0 41 28 110 53 131 24 19
72 0 122 -48 53 -51 112 -61 154 -25 44 37 73 31 118 -22 30 -36 48 -48 78
-53 43 -7 58 -29 26 -38 -12 -3 -21 -9 -21 -13 0 -19 33 -70 46 -70 7 0 21
-11 30 -25 15 -24 15 -30 0 -85 -17 -59 -17 -61 3 -87 25 -31 28 -88 5 -97 -9
-3 -27 -6 -40 -6 -17 0 -24 -6 -24 -20 0 -25 32 -27 51 -4 10 12 26 15 71 12
32 -2 61 -7 65 -11 4 -4 -1 -20 -10 -36 -15 -25 -15 -30 -2 -41 10 -9 13 -23
9 -49 -7 -49 16 -82 45 -63 51 30 101 1 66 -38 -23 -25 -8 -45 46 -61 35 -11
40 -10 69 15 17 14 38 26 46 26 9 0 14 11 14 29 0 28 -2 29 -59 36 -63 7 -79
22 -61 54 12 23 90 33 130 18 16 -6 32 -8 36 -4 4 4 11 30 15 59 5 31 17 60
29 72 l21 21 20 -24 c10 -13 19 -38 19 -57 0 -27 4 -34 20 -34 19 0 20 7 20
234 0 199 -2 235 -15 240 -8 3 -15 12 -15 21 0 8 7 15 15 15 11 0 15 12 15 50
0 43 -3 50 -19 50 -11 0 -22 4 -25 9 -3 5 -25 18 -48 30 -24 12 -56 30 -73 41
-16 10 -35 19 -41 19 -11 1 -102 42 -134 61 -8 4 -42 21 -75 36 -33 15 -73 37
-90 48 -16 11 -42 27 -56 37 -14 9 -57 29 -95 44 -38 15 -76 33 -84 39 -20 16
-145 76 -158 76 -5 0 -15 6 -21 14 -7 8 -25 17 -40 21 -15 3 -59 24 -97 47
-38 22 -128 71 -201 109 -72 37 -139 72 -150 78 -10 5 -48 24 -85 41 -64 29
-68 33 -98 98 -18 37 -38 74 -45 82 -6 8 -30 49 -52 90 -57 105 -82 144 -129
200 -23 26 -56 69 -73 94 -18 25 -38 46 -45 46 -7 0 -24 -21 -39 -47z m423
-863 c0 -47 -16 -100 -30 -100 -3 0 -15 6 -25 14 -18 13 -18 14 3 41 12 15 22
42 22 60 0 17 3 35 6 38 15 14 24 -7 24 -53z m-350 25 c0 -25 -23 -35 -35 -15
-10 16 2 40 20 40 9 0 15 -9 15 -25z m-85 -45 c10 -11 23 -20 30 -20 14 0 37
-45 28 -54 -15 -15 -42 -5 -45 16 -2 13 -11 24 -23 26 -28 5 -39 18 -32 36 8
21 20 20 42 -4z m855 -15 c0 -8 -4 -15 -10 -15 -5 0 -10 7 -10 15 0 8 5 15 10
15 6 0 10 -7 10 -15z m-472 -107 c-2 -13 -10 -23 -18 -23 -8 0 -16 10 -18 23
-3 17 2 22 18 22 16 0 21 -5 18 -22z m202 -2 c0 -15 -40 -49 -48 -41 -5 5 31
54 41 55 4 0 7 -6 7 -14z m853 -100 c25 -20 21 -26 -19 -26 -28 0 -35 -3 -32
-17 2 -13 16 -19 53 -23 28 -3 60 -11 71 -18 22 -12 39 -55 29 -72 -11 -18
-46 -10 -69 15 -26 28 -51 32 -60 10 -8 -21 -59 -19 -87 4 l-24 19 28 13 c32
14 36 29 7 29 -15 0 -79 35 -98 55 -2 2 28 3 67 1 50 -2 75 2 82 11 14 16 29
16 52 -1z m-1390 -72 c8 -9 -16 -55 -42 -78 -20 -18 -20 -18 -33 9 -11 24 -10
29 7 41 11 7 25 18 30 23 12 12 29 14 38 5z m1877 -189 c10 -13 9 -15 -9 -15
-12 0 -21 6 -21 15 0 8 4 15 9 15 5 0 14 -7 21 -15z m-161 -24 c23 -15 5 -39
-36 -45 -64 -11 -68 -18 -42 -63 44 -77 -3 -97 -90 -39 -28 19 -60 37 -70 41
-45 14 -43 31 11 64 63 39 193 63 227 42z m-219 -311 c0 -5 -7 -10 -15 -10 -8
0 -15 5 -15 10 0 6 7 10 15 10 8 0 15 -4 15 -10z m160 -59 c14 -27 13 -74 -3
-95 -16 -22 -64 -23 -105 -2 -32 16 -37 31 -26 72 12 43 114 62 134 25z
m-2013 -7 c1 -5 -2 -16 -7 -24 -12 -20 -35 2 -26 25 6 17 27 16 33 -1z m-87
-84 c0 -11 -4 -20 -9 -20 -14 0 -23 18 -16 30 10 17 25 11 25 -10z m-302 -102
c-2 -13 -7 -23 -13 -23 -5 0 -11 10 -13 23 -2 15 2 22 13 22 11 0 15 -7 13
-22z m-18 -59 c0 -22 -49 -108 -62 -109 -16 0 -7 33 20 81 29 53 42 61 42 28z
m-84 -187 c-25 -25 -30 -6 -10 35 l19 38 3 -29 c2 -17 -3 -35 -12 -44z m114
-51 c0 -12 -20 -25 -27 -18 -7 7 6 27 18 27 5 0 9 -4 9 -9z m-160 -25 c0 -8
-5 -18 -11 -21 -5 -4 -15 -17 -20 -28 -5 -12 -17 -34 -27 -48 -9 -14 -29 -44
-44 -67 -36 -54 -53 -64 -44 -26 4 16 23 45 42 65 33 34 65 83 80 122 8 21 24
23 24 3z m100 -65 c0 -5 -7 -14 -15 -21 -16 -14 -18 -10 -9 14 6 17 24 22 24
7z m-40 -55 c0 -18 -17 -29 -30 -21 -8 5 -7 11 1 21 15 18 29 18 29 0z m-60
-99 c0 -25 -26 -67 -41 -67 -14 0 -11 29 8 61 21 35 33 37 33 6z m-240 -147
c0 -5 -5 -10 -11 -10 -5 0 -7 5 -4 10 3 6 8 10 11 10 2 0 4 -4 4 -10z m-104
-186 c-3 -8 -10 -14 -16 -14 -14 0 -13 33 3 49 10 10 13 9 15 -4 2 -9 1 -23
-2 -31z m184 -4 c0 -5 -4 -10 -10 -10 -5 0 -10 5 -10 10 0 6 5 10 10 10 6 0
10 -4 10 -10z m-334 -335 c-7 -28 -26 -34 -26 -9 0 8 5 25 12 37 14 26 23 8
14 -28z m-26 -62 c0 -10 -5 -25 -10 -33 -7 -11 -10 -7 -10 18 0 17 5 32 10 32
6 0 10 -8 10 -17z m120 -23 c0 -32 -19 -40 -39 -16 -9 11 -8 18 4 30 24 24 35
20 35 -14z m-155 -119 c3 -5 1 -12 -5 -16 -5 -3 -10 1 -10 9 0 18 6 21 15 7z"></path>
<path d="M1970 3358 c-13 -24 -45 -72 -70 -108 -26 -36 -59 -90 -74 -120 -15
-30 -47 -75 -70 -100 -24 -25 -57 -76 -75 -115 -18 -38 -42 -90 -54 -113 -22
-44 -84 -102 -108 -102 -14 0 -81 -33 -214 -105 -38 -21 -117 -62 -175 -92
-58 -30 -114 -63 -126 -74 -11 -10 -26 -19 -32 -19 -7 0 -34 -15 -60 -34 -48
-33 -141 -86 -153 -86 -7 0 -165 -95 -183 -109 -6 -5 -34 -17 -61 -27 -52 -17
-200 -99 -211 -115 -3 -5 -12 -9 -21 -9 -8 0 -34 -13 -57 -28 -22 -15 -48 -31
-56 -35 -8 -4 -44 -25 -79 -47 -34 -22 -69 -40 -77 -40 -12 0 -14 -40 -14
-236 0 -130 3 -234 8 -232 83 36 122 62 117 78 -6 20 2 24 73 35 39 6 46 12
70 56 38 68 78 84 146 57 54 -21 70 -15 64 23 -2 20 -8 24 -34 22 -41 -3 -67
23 -42 41 10 7 22 24 27 38 6 17 20 27 39 31 18 4 32 13 34 24 2 14 12 17 43
15 47 -3 57 3 76 43 13 26 20 30 54 29 28 -1 43 4 56 20 14 17 21 19 35 10 29
-17 28 -34 -4 -46 -20 -8 -33 -22 -39 -42 -5 -17 -15 -30 -22 -28 -8 1 -25 -5
-38 -13 -22 -15 -24 -21 -19 -60 6 -40 4 -46 -37 -94 -24 -28 -52 -67 -62 -85
-17 -31 -17 -39 -5 -76 17 -52 26 -57 53 -32 12 10 31 24 42 30 24 13 80 61
140 121 43 42 45 43 69 28 29 -19 42 -55 27 -70 -6 -6 -11 -21 -11 -34 0 -30
28 -30 35 0 20 88 25 117 25 154 0 40 -2 42 -35 49 -45 8 -45 21 1 30 27 5 38
2 48 -11 18 -24 52 -11 60 23 4 15 15 71 24 124 16 92 19 98 52 120 29 20 36
32 42 71 10 75 45 116 74 87 6 -6 24 -2 52 11 67 33 70 28 68 -107 -2 -65 2
-130 8 -146 9 -23 7 -31 -14 -53 -14 -15 -24 -40 -26 -62 -2 -21 -4 -49 -6
-63 -2 -21 2 -26 25 -28 50 -6 60 3 42 37 -16 32 -17 30 35 70 22 17 23 22 13
40 -7 11 -13 29 -13 38 0 24 64 98 77 90 6 -4 14 -27 18 -52 3 -26 12 -48 20
-51 7 -3 19 -19 25 -35 11 -25 15 -27 28 -17 8 7 26 38 39 68 52 119 65 140
83 140 16 0 18 -7 17 -42 -2 -41 -1 -43 28 -43 26 0 30 -4 35 -35 10 -56 42
-100 74 -100 27 0 -29 112 -83 169 -39 41 -40 43 -28 74 8 19 22 33 34 35 36
5 48 28 29 57 -9 14 -24 25 -34 26 -13 0 -11 3 6 9 12 5 23 15 24 22 0 7 2 20
2 28 1 11 12 14 41 12 48 -4 87 -27 83 -49 -2 -9 7 -22 19 -28 12 -6 31 -22
42 -36 l19 -24 27 25 c26 24 27 25 41 6 8 -11 14 -26 14 -34 0 -17 -20 -55
-33 -63 -22 -15 4 -38 50 -44 92 -13 106 -19 114 -49 4 -16 16 -37 25 -48 10
-11 18 -36 19 -58 0 -22 6 -45 12 -51 17 -17 80 7 100 38 15 22 15 32 4 85
-12 60 -12 61 16 90 33 34 27 49 -36 92 -39 26 -42 31 -37 60 5 26 1 37 -16
53 -13 12 -32 23 -43 25 -12 2 -21 13 -23 27 -4 23 -2 24 40 18 23 -2 74 -19
111 -36 58 -27 67 -34 56 -47 -9 -11 -9 -18 -1 -26 9 -9 15 -8 24 4 7 9 27 19
44 23 28 5 35 2 54 -25 21 -30 86 -70 113 -70 7 0 26 -13 41 -29 31 -32 62
-45 72 -29 6 10 -63 88 -78 88 -5 0 -36 30 -70 66 -34 36 -82 80 -107 97 -59
40 -181 161 -181 179 0 7 -6 22 -13 33 -32 47 -77 244 -77 337 0 50 4 62 26
83 l25 23 -35 28 c-21 17 -38 41 -41 59 -10 46 -47 138 -66 160 -9 11 -29 43
-44 70 -32 57 -73 105 -90 105 -6 0 -22 -19 -35 -42z m220 -1003 c0 -36 -13
-47 -24 -19 -11 28 -6 54 9 54 10 0 15 -11 15 -35z m-1222 -27 c-2 -6 -10 -14
-16 -16 -7 -2 -10 2 -6 12 7 18 28 22 22 4z m765 -15 c28 -15 29 -18 12 -21
-11 -2 -28 -11 -37 -19 -15 -14 -18 -13 -23 10 -6 24 -1 47 11 47 3 0 19 -8
37 -17z m-773 -47 c-14 -14 -24 0 -16 21 6 15 8 15 16 3 6 -9 5 -19 0 -24z
m-41 -41 c12 -12 11 -21 -9 -61 -12 -27 -27 -77 -34 -112 -12 -69 -34 -94 -62
-71 -18 15 -12 37 32 106 46 70 52 106 26 129 -12 10 -19 21 -16 26 7 11 44 0
63 -17z m291 10 c0 -8 -7 -15 -15 -15 -16 0 -20 12 -8 23 11 12 23 8 23 -8z
m-392 -37 c-6 -18 -28 -21 -28 -4 0 9 7 16 16 16 9 0 14 -5 12 -12z m797 -44
l0 -49 -38 -3 c-53 -4 -58 18 -16 67 19 22 39 38 44 37 6 -2 10 -25 10 -52z
m-845 -81 c0 -39 -16 -83 -30 -83 -5 0 -10 11 -10 24 0 14 -9 31 -19 38 -31
22 -29 36 9 55 40 21 50 14 50 -34z m-290 7 c0 -5 -5 -10 -11 -10 -5 0 -7 5
-4 10 3 6 8 10 11 10 2 0 4 -4 4 -10z m1035 -130 c-5 -8 -11 -8 -17 -2 -6 6
-7 16 -3 22 5 8 11 8 17 2 6 -6 7 -16 3 -22z m-1272 -14 c7 -18 -1 -26 -25
-26 -20 0 -25 26 -5 33 20 9 25 8 30 -7z"></path>
<path d="M3705 2409 c-38 -4 -137 -6 -220 -4 -154 4 -230 -3 -230 -20 0 -6 18
-11 39 -13 21 -2 50 -10 63 -19 20 -13 28 -14 48 -3 20 10 30 11 51 1 15 -7
45 -9 72 -5 26 3 59 1 73 -4 18 -7 46 -7 85 -1 33 6 78 13 101 16 46 5 69 24
59 48 -6 16 -27 17 -141 4z"></path>
<path d="M1195 2080 c3 -5 8 -10 11 -10 2 0 4 5 4 10 0 6 -5 10 -11 10 -5 0
-7 -4 -4 -10z"></path>
<path d="M5207 2083 c-4 -3 -7 -15 -7 -26 0 -13 5 -17 16 -13 9 3 17 6 19 6 3
0 9 9 15 20 9 17 8 20 -13 20 -13 0 -27 -3 -30 -7z"></path>
<path d="M2399 2063 c-9 -10 -9 -23 0 -52 10 -34 17 -41 54 -53 35 -11 45 -20
61 -55 13 -28 28 -45 47 -52 34 -12 47 -46 25 -70 -24 -26 -20 -34 30 -61 25
-14 50 -33 56 -43 5 -11 18 -17 31 -15 17 2 23 11 25 41 3 35 2 37 -27 37 -36
0 -50 18 -28 35 35 25 13 114 -24 100 -8 -3 -34 13 -58 35 -32 29 -42 45 -38
60 4 14 -1 24 -16 32 -12 6 -28 20 -37 31 -9 10 -33 25 -53 32 -30 10 -39 10
-48 -2z"></path>
<path d="M5857 2033 c-4 -3 -7 -15 -7 -25 0 -14 8 -18 34 -18 46 0 54 16 17
35 -34 17 -35 17 -44 8z"></path>
<path d="M5062 1894 c-12 -24 -11 -25 15 -22 20 2 29 9 31 26 5 32 -31 29 -46
-4z"></path>
<path d="M5721 1896 c-8 -20 -8 -33 -2 -39 13 -13 24 13 19 45 -4 22 -5 22
-17 -6z"></path>
<path d="M5315 1889 c-4 -6 0 -18 9 -27 15 -15 16 -15 16 5 0 25 -15 38 -25
22z"></path>
<path d="M4502 1848 c-17 -17 -15 -53 3 -68 20 -17 26 -10 32 39 6 43 -9 55
-35 29z"></path>
<path d="M1675 1830 c3 -5 8 -10 11 -10 2 0 4 5 4 10 0 6 -5 10 -11 10 -5 0
-7 -4 -4 -10z"></path>
<path d="M1486 1800 c-14 -17 -26 -36 -26 -41 0 -5 -13 -9 -29 -9 -16 0 -35
-7 -42 -16 -11 -14 -10 -19 10 -35 31 -25 48 -24 56 4 4 12 15 31 25 42 20 21
43 75 37 82 -3 2 -16 -10 -31 -27z"></path>
<path d="M6080 1806 c0 -10 9 -16 21 -16 24 0 21 23 -4 28 -10 2 -17 -3 -17
-12z"></path>
<path d="M1697 1764 c-13 -13 -7 -24 14 -24 11 0 19 5 17 12 -5 14 -22 21 -31
12z"></path>
<path d="M2063 1746 c10 -8 17 -27 17 -48 0 -20 9 -47 23 -64 30 -41 94 -104
106 -104 5 0 16 -11 25 -24 8 -14 25 -27 36 -31 13 -4 30 -26 41 -51 13 -33
27 -48 49 -55 16 -6 30 -14 30 -17 0 -4 14 -20 30 -37 17 -16 38 -38 48 -47
18 -20 42 -24 42 -8 0 13 -11 27 -65 85 -22 23 -49 60 -60 81 -22 43 -65 89
-107 117 -16 9 -28 23 -28 30 0 8 -11 24 -24 36 -13 12 -26 35 -29 51 -5 21
-18 34 -54 52 -26 12 -52 29 -56 35 -4 7 -16 13 -25 13 -16 -1 -16 -2 1 -14z"></path>
<path d="M6285 1750 c3 -5 15 -10 26 -10 10 0 19 5 19 10 0 6 -12 10 -26 10
-14 0 -23 -4 -19 -10z"></path>
<path d="M2970 1726 c0 -8 5 -18 10 -21 6 -3 10 1 10 9 0 8 -4 18 -10 21 -5 3
-10 -1 -10 -9z"></path>
<path d="M1280 1658 c-24 -40 -25 -50 -3 -110 l16 -47 -26 -35 c-15 -19 -27
-41 -27 -48 0 -17 51 -68 67 -68 13 0 25 46 28 110 2 25 8 75 15 112 16 84 9
118 -25 118 -18 0 -31 -10 -45 -32z"></path>
<path d="M2737 1591 c-3 -15 3 -23 25 -32 37 -15 55 -1 39 30 -15 27 -57 28
-64 2z"></path>
<path d="M2430 1511 c0 -6 5 -13 10 -16 6 -3 10 -15 10 -26 0 -15 5 -18 24
-13 27 6 56 -17 56 -47 0 -22 60 -89 79 -89 14 0 14 7 -3 63 -20 65 -93 137
-141 137 -19 0 -35 -4 -35 -9z"></path>
<path d="M5520 1501 c0 -14 5 -19 15 -14 17 6 15 25 -3 31 -7 2 -12 -5 -12
-17z"></path>
<path d="M2190 1421 c-12 -23 -4 -51 15 -51 19 0 27 28 15 51 -6 10 -13 19
-15 19 -2 0 -9 -9 -15 -19z"></path>
<path d="M6960 1421 c-21 -6 -22 -8 -7 -14 19 -7 47 1 47 14 0 10 -4 10 -40 0z"></path>
<path d="M502 1350 c0 -14 2 -19 5 -12 2 6 2 18 0 25 -3 6 -5 1 -5 -13z"></path>
<path d="M1280 1275 c-10 -13 -9 -15 9 -15 11 0 21 4 21 9 0 18 -18 21 -30 6z"></path>
<path d="M2630 1275 c0 -4 16 -22 35 -42 30 -31 35 -33 35 -16 0 12 -7 23 -15
27 -8 3 -15 12 -15 21 0 8 -9 15 -20 15 -11 0 -20 -2 -20 -5z"></path>
<path d="M2735 1270 c3 -5 8 -10 11 -10 2 0 4 5 4 10 0 6 -5 10 -11 10 -5 0
-7 -4 -4 -10z"></path>
<path d="M6697 1252 c-10 -10 -17 -21 -17 -24 0 -13 114 -98 132 -98 20 0 48
52 48 89 0 22 -29 36 -43 22 -7 -7 -19 -3 -35 9 -31 25 -64 25 -85 2z"></path>
<path d="M6024 1237 c-2 -7 -1 -24 4 -37 l9 -24 12 23 c13 24 9 51 -9 51 -6 0
-13 -6 -16 -13z"></path>
<path d="M2530 1186 c0 -17 14 -29 23 -20 8 8 -3 34 -14 34 -5 0 -9 -6 -9 -14z"></path>
<path d="M2710 1182 c0 -17 54 -72 71 -72 18 0 8 27 -22 58 -35 36 -49 40 -49
14z"></path>
<path d="M4632 1188 c-7 -7 -12 -22 -12 -34 0 -13 -4 -26 -10 -29 -5 -3 -10
-11 -10 -16 0 -6 14 3 30 19 30 30 38 56 22 66 -5 3 -14 0 -20 -6z"></path>
<path d="M6030 1085 c0 -19 5 -35 10 -35 6 0 10 16 10 35 0 19 -4 35 -10 35
-5 0 -10 -16 -10 -35z"></path>
<path d="M6785 1039 c-7 -22 18 -59 42 -59 15 0 16 4 4 28 -5 9 -12 25 -15 35
-7 23 -23 22 -31 -4z"></path>
<path d="M2832 1028 c3 -7 13 -15 24 -17 16 -3 17 -1 5 13 -16 19 -34 21 -29
4z"></path>
<path d="M6043 925 c0 -44 2 -61 4 -37 2 23 2 59 0 80 -2 20 -4 1 -4 -43z"></path>
<path d="M6960 991 c0 -5 9 -7 20 -4 11 3 20 7 20 9 0 2 -9 4 -20 4 -11 0 -20
-4 -20 -9z"></path>
<path d="M2920 918 c0 -19 18 -43 25 -36 9 9 -4 48 -16 48 -5 0 -9 -6 -9 -12z"></path>
<path d="M6934 846 c-3 -8 -4 -27 -2 -43 2 -24 8 -28 36 -31 32 -3 32 -3 32
42 0 45 -1 46 -30 46 -17 0 -33 -6 -36 -14z"></path>
<path d="M255 840 c-11 -17 5 -32 21 -19 7 6 11 15 8 20 -7 12 -21 11 -29 -1z"></path>
<path d="M6944 695 c-10 -25 4 -45 31 -45 21 0 25 5 25 30 0 25 -4 30 -25 30
-14 0 -28 -7 -31 -15z"></path>
<path d="M6385 540 c3 -5 8 -10 11 -10 2 0 4 5 4 10 0 6 -5 10 -11 10 -5 0 -7
-4 -4 -10z"></path>
<path d="M6940 540 c0 -5 14 -10 30 -10 17 0 30 5 30 10 0 6 -13 10 -30 10
-16 0 -30 -4 -30 -10z"></path>
<path d="M6880 470 c0 -13 90 -13 110 0 11 7 -3 10 -47 10 -36 0 -63 -4 -63
-10z"></path>
<path d="M6788 463 c7 -3 16 -2 19 1 4 3 -2 6 -13 5 -11 0 -14 -3 -6 -6z"></path>
<path d="M6410 370 c0 -21 4 -30 13 -27 6 2 12 14 12 27 0 13 -6 25 -12 28 -9
2 -13 -7 -13 -28z"></path>
<path d="M3910 135 c0 -19 2 -35 5 -35 10 0 24 40 19 54 -11 28 -24 17 -24
-19z"></path>
<path d="M3802 45 c-31 -35 -28 -45 13 -45 30 0 35 3 35 24 0 40 -23 50 -48
21z"></path>
</g>
</svg>